<?xml version="1.0" encoding="utf-8"?>
<svg xmlns="http://www.w3.org/2000/svg" preserveAspectRatio="xMinYMin"
    version="1.1" viewBox="0 0 1000 750">
    <title>Employee age distribution</title>
    <desc>An overview of our employee's age</desc>
    <rect fill="none" height="748" stroke="black" stroke-width="1"
        width="998" x="1" y="1"/>
    <text font-family="sans-serif" font-size="32" text-anchor="middle"
        x="50%" y="52">Employee age distribution</text>
    <g transform="translate(803.8 72.0)">
        <rect fill="none" height="504.0" stroke="black" stroke-width="1"
            width="176.2" x="0.0" y="0.0"/>
        <circle cx="15" cy="23.0" fill="#ff0000" r="9.600000000000001" stroke="black"/>
        <text font-family="sans-serif" font-size="24" stroke="black"
            x="30.0" y="32.0">Employee 1</text>
        <circle cx="15" cy="47.0" fill="#ff4d00" r="9.600000000000001" stroke="black"/>
        <text font-family="sans-serif" font-size="24" stroke="black"
            x="30.0" y="56.0">Employee 2</text>
        <circle cx="15" cy="71.0" fill="#ff9900" r="9.600000000000001" stroke="black"/>
        <text font-family="sans-serif" font-size="24" stroke="black"
            x="30.0" y="80.0">Employee 3</text>
        <circle cx="15" cy="95.0" fill="#ffe600" r="9.600000000000001" stroke="black"/>
        <text font-family="sans-serif" font-size="24" stroke="black"
            x="30.0" y="104.0">Employee 4</text>
        <circle cx="15" cy="119.0" fill="#ccff00" r="9.600000000000001" stroke="black"/>
        <text font-family="sans-serif" font-size="24" stroke="black"
            x="30.0" y="128.0">Employee 5</text>
        <circle cx="15" cy="143.0" fill="#80ff00" r="9.600000000000001" stroke="black"/>
        <text font-family="sans-serif" font-size="24" stroke="black"
            x="30.0" y="152.0">Employee 6</text>
        <circle cx="15" cy="167.0" fill="#33ff00" r="9.600000000000001" stroke="black"/>
        <text font-family="sans-serif" font-size="24" stroke="black"
            x="30.0" y="176.0">Employee 7</text>
        <circle cx="15" cy="191.0" fill="#00ff19" r="9.600000000000001" stroke="black"/>
        <text font-family="sans-serif" font-size="24" stroke="black"
            x="30.0" y="200.0">Employee 8</text>
        <circle cx="15" cy="215.0" fill="#00ff66" r="9.600000000000001" stroke="black"/>
        <text font-family="sans-serif" font-size="24" stroke="black"
            x="30.0" y="224.0">Employee 9</text>
        <circle cx="15" cy="239.0" fill="#00ffb3" r="9.600000000000001" stroke="black"/>
        <text font-family="sans-serif" font-size="24" stroke="black"
            x="30.0" y="248.0">Employee 10</text>
        <circle cx="15" cy="263.0" fill="#00ffff" r="9.600000000000001" stroke="black"/>
        <text font-family="sans-serif" font-size="24" stroke="black"
            x="30.0" y="272.0">Employee 11</text>
        <circle cx="15" cy="287.0" fill="#00b2ff" r="9.600000000000001" stroke="black"/>
        <text font-family="sans-serif" font-size="24" stroke="black"
            x="30.0" y="296.0">Employee 12</text>
        <circle cx="15" cy="311.0" fill="#0066ff" r="9.600000000000001" stroke="black"/>
        <text font-family="sans-serif" font-size="24" stroke="black"
            x="30.0" y="320.0">Employee 13</text>
        <circle cx="15" cy="335.0" fill="#0019ff" r="9.600000000000001" stroke="black"/>
        <text font-family="sans-serif" font-size="24" stroke="black"
            x="30.0" y="344.0">Employee 14</text>
        <circle cx="15" cy="359.0" fill="#3300ff" r="9.600000000000001" stroke="black"/>
        <text font-family="sans-serif" font-size="24" stroke="black"
            x="30.0" y="368.0">Employee 15</text>
        <circle cx="15" cy="383.0" fill="#8000ff" r="9.600000000000001" stroke="black"/>
        <text font-family="sans-serif" font-size="24" stroke="black"
            x="30.0" y="392.0">Employee 16</text>
        <circle cx="15" cy="407.0" fill="#cc00ff" r="9.600000000000001" stroke="black"/>
        <text font-family="sans-serif" font-size="24" stroke="black"
            x="30.0" y="416.0">Employee 17</text>
        <circle cx="15" cy="431.0" fill="#ff00e5" r="9.600000000000001" stroke="black"/>
        <text font-family="sans-serif" font-size="24" stroke="black"
            x="30.0" y="440.0">Employee 18</text>
        <circle cx="15" cy="455.0" fill="#ff0099" r="9.600000000000001" stroke="black"/>
        <text font-family="sans-serif" font-size="24" stroke="black"
            x="30.0" y="464.0">Employee 19</text>
        <circle cx="15" cy="479.0" fill="#ff004d" r="9.600000000000001" stroke="black"/>
        <text font-family="sans-serif" font-size="24" stroke="black"
            x="30.0" y="488.0">Employee 20</text>
    </g>
    <line stroke="black" x1="20" x2="20" y1="674" y2="72"/>
    <line stroke="black" stroke-dasharray="2,2" x1="20" x2="783"
        y1="614" y2="614"/>
    <line stroke="black" x1="20" x2="23" y1="614" y2="614"/>
    <text font-family="sans-serif" font-size="12" stroke="black"
        text-anchor="start" x="27" y="618">7.5</text>
    <line stroke="black" stroke-dasharray="2,2" x1="20" x2="783"
        y1="554" y2="554"/>
    <line stroke="black" x1="20" x2="23" y1="554" y2="554"/>
    <text font-family="sans-serif" font-size="12" stroke="black"
        text-anchor="start" x="27" y="558">15</text>
    <line stroke="black" stroke-dasharray="2,2" x1="20" x2="783"
        y1="494" y2="494"/>
    <line stroke="black" x1="20" x2="23" y1="494" y2="494"/>
    <text font-family="sans-serif" font-size="12" stroke="black"
        text-anchor="start" x="27" y="498">22.5</text>
    <line stroke="black" stroke-dasharray="2,2" x1="20" x2="783"
        y1="434" y2="434"/>
    <line stroke="black" x1="20" x2="23" y1="434" y2="434"/>
    <text font-family="sans-serif" font-size="12" stroke="black"
        text-anchor="start" x="27" y="438">30</text>
    <line stroke="black" stroke-dasharray="2,2" x1="20" x2="783"
        y1="373" y2="373"/>
    <line stroke="black" x1="20" x2="23" y1="373" y2="373"/>
    <text font-family="sans-serif" font-size="12" stroke="black"
        text-anchor="start" x="27" y="377">37.5</text>
    <line stroke="black" stroke-dasharray="2,2" x1="20" x2="783"
        y1="313" y2="313"/>
    <line stroke="black" x1="20" x2="23" y1="313" y2="313"/>
    <text font-family="sans-serif" font-size="12" stroke="black"
        text-anchor="start" x="27" y="317">45</text>
    <line stroke="black" stroke-dasharray="2,2" x1="20" x2="783"
        y1="253" y2="253"/>
    <line stroke="black" x1="20" x2="23" y1="253" y2="253"/>
    <text font-family="sans-serif" font-size="12" stroke="black"
        text-anchor="start" x="27" y="257">52.5</text>
    <line stroke="black" stroke-dasharray="2,2" x1="20" x2="783"
        y1="193" y2="193"/>
    <line stroke="black" x1="20" x2="23" y1="193" y2="193"/>
    <text font-family="sans-serif" font-size="12" stroke="black"
        text-anchor="start" x="27" y="197">60</text>
    <line stroke="black" stroke-dasharray="2,2" x1="20" x2="783"
        y1="133" y2="133"/>
    <line stroke="black" x1="20" x2="23" y1="133" y2="133"/>
    <text font-family="sans-serif" font-size="12" stroke="black"
        text-anchor="start" x="27" y="137">67.5</text>
    <line stroke="black" stroke-dasharray="2,2" x1="20" x2="783" y1="72" y2="72"/>
    <line stroke="black" x1="20" x2="23" y1="72" y2="72"/>
    <text font-family="sans-serif" font-size="12" stroke="black"
        text-anchor="start" x="27" y="76">75</text>
    <line stroke="black" x1="20" x2="23" y1="674" y2="674"/>
    <text font-family="sans-serif" font-size="12" stroke="black"
        text-anchor="start" x="27" y="678">0</text>
    <text font-family="sans-serif" font-size="14" stroke="black"
        text-anchor="start" x="20" y="61">Age (year)</text>
    <line stroke="black" x1="20" x2="783" y1="674" y2="674"/>
    <defs>
        <filter id="highlight">
            <feMorphology operator="dilate" radius="2"/>
            <feColorMatrix type="saturate" values="1"/>
            <feGaussianBlur result="coloredBlur" stdDeviation="2.5"/>
            <feMerge>
                <feMergeNode in="coloredBlur"/>
                <feMergeNode in="SourceGraphic"/>
            </feMerge>
        </filter>
    </defs>
    <defs>
        <pattern height="10" id="highlightPattern"
            patternUnits="userSpaceOnUse" viewBox="0 0 10 10" width="10"
            x="0" y="0">
            <line stroke="black" x1="0" x2="10" y1="0" y2="10"/>
        </pattern>
    </defs>
    <rect fill="#ff0000" height="413" stroke="black" width="26" x="61" y="261"/>
    <text font-family="sans-serif" font-size="12" stroke="black"
        text-anchor="start" transform="rotate(90 61,674)" x="63" y="672">51.51</text>
    <rect fill="#ff4d00" height="392" stroke="black" width="26" x="97" y="282"/>
    <text font-family="sans-serif" font-size="12" stroke="black"
        text-anchor="start" transform="rotate(90 97,674)" x="99" y="672">48.87</text>
    <rect fill="#ff9900" filter="url(#highlight)" height="487"
        stroke="black" width="26" x="133" y="187"/>
    <rect fill="url(#highlightPattern)" height="487" stroke="black"
        width="26" x="133" y="187"/>
    <text font-family="sans-serif" font-size="12" stroke="black"
        text-anchor="start" transform="rotate(90 133,674)" x="135" y="672">60.71</text>
    <rect fill="#ffe600" height="549" stroke="black" width="26" x="169" y="125"/>
    <text font-family="sans-serif" font-size="12" stroke="black"
        text-anchor="start" transform="rotate(90 169,674)" x="171" y="672">68.43</text>
    <rect fill="#ccff00" height="423" stroke="black" width="26" x="205" y="251"/>
    <text font-family="sans-serif" font-size="12" stroke="black"
        text-anchor="start" transform="rotate(90 205,674)" x="207" y="672">52.75</text>
    <rect fill="#80ff00" filter="url(#highlight)" height="550"
        stroke="black" width="26" x="241" y="124"/>
    <rect fill="url(#highlightPattern)" height="550" stroke="black"
        width="26" x="241" y="124"/>
    <text font-family="sans-serif" font-size="12" stroke="black"
        text-anchor="start" transform="rotate(90 241,674)" x="243" y="672">68.54</text>
    <rect fill="#33ff00" height="420" stroke="black" width="26" x="277" y="254"/>
    <text font-family="sans-serif" font-size="12" stroke="black"
        text-anchor="start" transform="rotate(90 277,674)" x="279" y="672">52.44</text>
    <rect fill="#00ff19" height="504" stroke="black" width="26" x="313" y="170"/>
    <text font-family="sans-serif" font-size="12" stroke="black"
        text-anchor="start" transform="rotate(90 313,674)" x="315" y="672">62.83</text>
    <rect fill="#00ff66" filter="url(#highlight)" height="230"
        stroke="black" width="26" x="349" y="444"/>
    <rect fill="url(#highlightPattern)" height="230" stroke="black"
        width="26" x="349" y="444"/>
    <text font-family="sans-serif" font-size="12" stroke="black"
        text-anchor="start" transform="rotate(90 349,674)" x="351" y="672">28.78</text>
    <rect fill="#00ffb3" height="468" stroke="black" width="26" x="385" y="206"/>
    <text font-family="sans-serif" font-size="12" stroke="black"
        text-anchor="start" transform="rotate(90 385,674)" x="387" y="672">58.4</text>
    <rect fill="#00ffff" height="192" stroke="black" width="26" x="421" y="482"/>
    <text font-family="sans-serif" font-size="12" stroke="black"
        text-anchor="start" transform="rotate(90 421,674)" x="423" y="672">24.01</text>
    <rect fill="#00b2ff" filter="url(#highlight)" height="346"
        stroke="black" width="26" x="457" y="328"/>
    <rect fill="url(#highlightPattern)" height="346" stroke="black"
        width="26" x="457" y="328"/>
    <text font-family="sans-serif" font-size="12" stroke="black"
        text-anchor="start" transform="rotate(90 457,674)" x="459" y="672">43.16</text>
    <rect fill="#0066ff" height="447" stroke="black" width="26" x="493" y="227"/>
    <text font-family="sans-serif" font-size="12" stroke="black"
        text-anchor="start" transform="rotate(90 493,674)" x="495" y="672">55.77</text>
    <rect fill="#0019ff" height="503" stroke="black" width="26" x="529" y="171"/>
    <text font-family="sans-serif" font-size="12" stroke="black"
        text-anchor="start" transform="rotate(90 529,674)" x="531" y="672">62.77</text>
    <rect fill="#3300ff" filter="url(#highlight)" height="504"
        stroke="black" width="26" x="565" y="170"/>
    <rect fill="url(#highlightPattern)" height="504" stroke="black"
        width="26" x="565" y="170"/>
    <text font-family="sans-serif" font-size="12" stroke="black"
        text-anchor="start" transform="rotate(90 565,674)" x="567" y="672">62.83</text>
    <rect fill="#8000ff" height="461" stroke="black" width="26" x="601" y="213"/>
    <text font-family="sans-serif" font-size="12" stroke="black"
        text-anchor="start" transform="rotate(90 601,674)" x="603" y="672">57.49</text>
    <rect fill="#cc00ff" height="196" stroke="black" width="26" x="637" y="478"/>
    <text font-family="sans-serif" font-size="12" stroke="black"
        text-anchor="start" transform="rotate(90 637,674)" x="639" y="672">24.44</text>
    <rect fill="#ff00e5" filter="url(#highlight)" height="490"
        stroke="black" width="26" x="673" y="184"/>
    <rect fill="url(#highlightPattern)" height="490" stroke="black"
        width="26" x="673" y="184"/>
    <text font-family="sans-serif" font-size="12" stroke="black"
        text-anchor="start" transform="rotate(90 673,674)" x="675" y="672">61.12</text>
    <rect fill="#ff0099" height="193" stroke="black" width="26" x="709" y="481"/>
    <text font-family="sans-serif" font-size="12" stroke="black"
        text-anchor="start" transform="rotate(90 709,674)" x="711" y="672">24.16</text>
    <rect fill="#ff004d" height="188" stroke="black" width="26" x="745" y="486"/>
    <text font-family="sans-serif" font-size="12" stroke="black"
        text-anchor="start" transform="rotate(90 745,674)" x="747" y="672">23.52</text>
</svg>
